<svg xmlns="http://www.w3.org/2000/svg" viewBox="0 0 1043.45 263.22"><defs><style>.cls-1{fill:#9b1919;}.cls-2{fill:#141414;}</style></defs><g id="Layer_2" data-name="Layer 2"><g id="Layer_1-2" data-name="Layer 1"><path class="cls-1" d="M37.11,5.79Q43.44,11.6,43.45,21a21,21,0,0,1-6.34,15.39,21,21,0,0,1-15.39,6.33A20.94,20.94,0,0,1,6.34,36.39,20.92,20.92,0,0,1,0,21Q0,11.6,6.34,5.79A22,22,0,0,1,21.72,0,22,22,0,0,1,37.11,5.79ZM1.45,75.67H41.64v181.4H1.45Z"/><path class="cls-1" d="M187.54,257.07l-14.48-66.62H114.77l-14.48,66.62H55L116.58,3.62H172.7l62.64,253.45ZM164,148.08,144.09,55.4l-19.55,92.68Z"/><path class="cls-1" d="M324.22,252.72a64.46,64.46,0,0,1-13,4.89,58.1,58.1,0,0,1-15,2,78,78,0,0,1-16.65-1.81A62.49,62.49,0,0,1,263.58,252a44.42,44.42,0,0,1-13.4-10.86,49.71,49.71,0,0,1-9.05-17q-3.25-10.14-3.26-24.26V75.67h40.55V199.14q0,8.33,2.54,13.57a15.61,15.61,0,0,0,7.42,7.61,27.85,27.85,0,0,0,12.13,2.35,33.78,33.78,0,0,0,11.95-2.17,30.85,30.85,0,0,0,10.13-6.16,30.16,30.16,0,0,0,6.88-9.23A26.71,26.71,0,0,0,332,193.34V75.67h39.82v181.4H332v-9.42A33.12,33.12,0,0,1,324.22,252.72Z"/><path class="cls-1" d="M430.12,221.77a17,17,0,0,0,9.23,6.33,49.55,49.55,0,0,0,14.3,1.81l-11.94,31.86q-27.52-.72-41.46-13.94t-13.94-38.56V3.62h40.55V76h34.76l-8.33,36.57H426.86v96.67Q426.86,217.25,430.12,221.77Z"/><path class="cls-1" d="M580,241.32q-16.31,19.37-49.61,19.37-23.89,0-38.92-10a59.33,59.33,0,0,1-22.09-26.07,85.31,85.31,0,0,1-7-34.58V142.29q0-23.16,7.78-38.74a53.3,53.3,0,0,1,23-23.71q15.21-8.16,37.29-8.15,31.5,0,48.7,18.65t17.2,51.95v47.79Q596.31,222,580,241.32ZM552.5,125.09a21.75,21.75,0,0,0-8.51-9.77q-5.61-3.43-13.94-3.44-8.68,0-14.66,3.26a22.4,22.4,0,0,0-9.23,9.41q-3.27,6.17-3.26,15.57V193a35.43,35.43,0,0,0,2.71,13.76,22.71,22.71,0,0,0,8.87,10.5q6.15,4,15.57,4,9,0,14.67-3.62a20.61,20.61,0,0,0,8.14-10.14A39.62,39.62,0,0,0,555.4,193V140.12A36,36,0,0,0,552.5,125.09Z"/><path class="cls-2" d="M645.91,225.75a21.08,21.08,0,0,1,6.52,15.75,20.69,20.69,0,0,1-6.52,15.39,21.58,21.58,0,0,1-15.57,6.33,21.61,21.61,0,0,1-21.72-21.72A21.38,21.38,0,0,1,615,225.75a21,21,0,0,1,15.39-6.34A21.59,21.59,0,0,1,645.91,225.75Z"/><path class="cls-2" d="M853.37,123.28a20.94,20.94,0,0,0-6.16-7.6,32.81,32.81,0,0,0-9.05-4.89A32.23,32.23,0,0,0,827.3,109a46.73,46.73,0,0,0-8.15.91,69.71,69.71,0,0,0-10.5,2.89,101.8,101.8,0,0,0-11.4,4.89,41.41,41.41,0,0,1,.9,6.88q.18,3.63.18,7.6V257.07H758.51V133.24a22.85,22.85,0,0,0-8-17.56,27.64,27.64,0,0,0-8.69-4.89A32.23,32.23,0,0,0,731,109a46.46,46.46,0,0,0-8.69.91,55.75,55.75,0,0,0-9.78,2.89,102,102,0,0,0-10.5,4.89v139.4H661.83V75.67H702v8.69q2.9-1.8,8.51-4.52A89.85,89.85,0,0,1,723.21,75a49.46,49.46,0,0,1,14.66-2.17,88.85,88.85,0,0,1,17,1.62A65.21,65.21,0,0,1,771,79.84a43.64,43.64,0,0,1,13.57,10.31q6.52-4.34,13.94-8.32A80.54,80.54,0,0,1,815,75.31a72.22,72.22,0,0,1,19.55-2.53,87.1,87.1,0,0,1,21.54,2.71,54.42,54.42,0,0,1,19.55,9.41,47.76,47.76,0,0,1,14.3,18.29q5.45,11.6,5.44,29V257.07H855.54V133.24A22.85,22.85,0,0,0,853.37,123.28Z"/><path class="cls-2" d="M1002.17,123.28a21.77,21.77,0,0,0-5.25-7.78,24.62,24.62,0,0,0-8.15-5.07,28.94,28.94,0,0,0-10.49-1.81,54.2,54.2,0,0,0-8.51.72,47.24,47.24,0,0,0-9.6,2.72,88.49,88.49,0,0,0-10.86,5.25V257.43H909.48V75.67h39.83V84q3.26-1.81,8.87-4.53a89,89,0,0,1,12.67-4.88,49.58,49.58,0,0,1,14.67-2.18,80.26,80.26,0,0,1,17,1.81,60.18,60.18,0,0,1,15.75,5.8,44.23,44.23,0,0,1,13,10.68,49.54,49.54,0,0,1,8.87,16.83q3.25,10.14,3.26,24.26V257.43H1004V132.88A25.57,25.57,0,0,0,1002.17,123.28Z"/></g></g></svg>