<svg xmlns="http://www.w3.org/2000/svg" viewBox="0 0 235.34 257.07"><defs><style>.cls-1{fill:#9b1919;}</style></defs><g id="Layer_2" data-name="Layer 2"><g id="Layer_1-2" data-name="Layer 1"><path class="cls-1" d="M37.11,5.79Q43.44,11.6,43.45,21a21,21,0,0,1-6.34,15.39,21,21,0,0,1-15.39,6.33A20.94,20.94,0,0,1,6.34,36.39,20.92,20.92,0,0,1,0,21Q0,11.6,6.34,5.79A22,22,0,0,1,21.72,0,22,22,0,0,1,37.11,5.79ZM1.45,75.67H41.64v181.4H1.45Z"/><path class="cls-1" d="M187.54,257.07l-14.48-66.62H114.77l-14.48,66.62H55L116.58,3.62H172.7l62.64,253.45ZM164,148.08,144.09,55.4l-19.55,92.68Z"/></g></g></svg>