<svg xmlns="http://www.w3.org/2000/svg" viewBox="0 0 281.34 303.07"><defs><style>.cls-1{fill:#9b1919;}.cls-2{fill:#fff;}</style></defs><g id="Layer_2" data-name="Layer 2"><g id="Layer_1-2" data-name="Layer 1"><path class="cls-1" d="M210.54,291.57a11.49,11.49,0,0,1-11.23-9.06L186.79,225H147l-12.52,57.56a11.5,11.5,0,0,1-11.24,9.06H78a11.52,11.52,0,0,1-11.18-14.22L128.4,23.91a11.51,11.51,0,0,1,11.18-8.79H195.7a11.5,11.5,0,0,1,11.16,8.74L269.5,277.31a11.5,11.5,0,0,1-11.17,14.26Zm-37.77-132-5.57-26-5.48,26Z"/><path class="cls-2" d="M195.7,26.62l62.63,253.45H210.54l-14.48-66.62H137.77l-14.48,66.62H78L139.58,26.62H195.7M147.54,171.08H187L167.09,78.4l-19.55,92.68M195.7,3.62H139.58a23,23,0,0,0-22.35,17.57L55.68,274.64A23,23,0,0,0,78,303.07h45.26A23,23,0,0,0,145.76,285l10.55-48.5h21.21L188.07,285a23,23,0,0,0,22.47,18.12h47.79a23,23,0,0,0,22.33-28.52L218,21.1A23,23,0,0,0,195.7,3.62Z"/><path class="cls-1" d="M24.45,291.57A11.5,11.5,0,0,1,13,280.07V98.67a11.5,11.5,0,0,1,11.5-11.5H64.64a11.5,11.5,0,0,1,11.5,11.5v181.4a11.5,11.5,0,0,1-11.5,11.5ZM44.72,77.22A33.12,33.12,0,0,1,11.5,44c0-9.47,3.48-17.67,10.07-23.69A33.68,33.68,0,0,1,44.72,11.5a33.72,33.72,0,0,1,23.15,8.8C74.47,26.34,78,34.54,78,44A33.14,33.14,0,0,1,44.72,77.22Z"/><path class="cls-2" d="M44.72,23a22,22,0,0,1,15.39,5.79Q66.44,34.6,66.45,44A21.63,21.63,0,0,1,44.72,65.72,21.63,21.63,0,0,1,23,44q0-9.41,6.34-15.21A22,22,0,0,1,44.72,23M64.64,98.67v181.4H24.45V98.67H64.64M44.72,0a45,45,0,0,0-30.9,11.82C4.78,20.08,0,31.21,0,44A43.81,43.81,0,0,0,13.08,75.66c.68.68,1.38,1.33,2.08,2a23,23,0,0,0-13.71,21v181.4a23,23,0,0,0,23,23H64.64a23,23,0,0,0,23-23V98.67A23,23,0,0,0,74.16,77.73c.76-.66,1.49-1.36,2.22-2.08A43.87,43.87,0,0,0,89.45,44c0-12.78-4.77-23.9-13.8-32.17A45.07,45.07,0,0,0,44.72,0Z"/></g></g></svg>